<svg xmlns="http://www.w3.org/2000/svg" xmlns:xlink="http://www.w3.org/1999/xlink" version="1.1" x="0px" y="0px" viewBox="0 0 100 125" enable-background="new 0 0 100 100" xml:space="preserve">
    <g fill="white">
        <path d="M6.9,59.9c0,0.1,0,0.2-0.1,0.3h0C6.9,60.1,6.9,60,6.9,59.9z"/>
        <path d="M6.9,59.6c0,0.1,0,0.2,0,0.3C6.9,59.8,6.9,59.7,6.9,59.6L6.9,59.6z"/>
        <path d="M94.1,62.6c-0.4-4.2-1.2-7.8-2.3-10.6c0,0,0-0.1-0.1-0.1c0,0,0,0,0,0c-0.5-1.4-2.9-8-9.8-14.1l0.8-2.9   c0.1-0.5-0.1-1-0.6-1.3l-1.5-0.8l0.6-1.5c0.1-0.3,0.1-0.7-0.1-1c-0.2-0.3-0.5-0.5-0.9-0.5h-2.9l1-4.1c0.1-0.4,0-0.8-0.3-1   c-0.3-0.3-0.6-0.4-1-0.3L67,26.7l0,0.2c-0.3-0.1-0.5-0.3-0.8-0.4c-3.9-1.9-7.7-0.9-11.3,0.1v-2c0-0.3-0.1-0.6-0.3-0.8   c-0.2-0.2-0.5-0.3-0.8-0.3l-2.4,0.1l-0.8-3.3c-0.1-0.3-0.3-0.6-0.6-0.8c-0.3-0.1-0.7-0.1-1,0.1l-5.7,3.6l-1.9-2.1   c-0.2-0.3-0.6-0.4-0.9-0.3c-0.3,0-0.6,0.2-0.8,0.5L35.8,28C21,30.9,10.1,42.7,6.9,59.6c0,0.1,0,0.2,0,0.3c0,0.1,0,0.2-0.1,0.3   c-0.7,4.4-0.1,7.5,1.6,9.7c1.5,1.7,3.7,2.6,6.5,2.6h69.3c0.4,0,0.9,0,1.3,0c3.3-0.2,5.7-1.2,7.2-3C94.2,67.8,94.6,65.5,94.1,62.6z    M75.8,26.8l-0.9,3.8c-0.1,0.3,0,0.7,0.2,0.9c0.2,0.3,0.5,0.4,0.9,0.4h2.7l-0.4,1c-0.2,0.5,0,1.1,0.5,1.4l1.6,0.8l-0.3,1.1   c-2.5-1.9-5.4-3.7-8.9-5.2c-0.5-0.8-1.2-1.7-2.1-2.5L75.8,26.8z M65,29c2.3,1.1,3.4,2.6,4.2,4c0.2,0.3,0.3,0.6,0.5,0.9   c0.2,0.4,0.4,0.8,0.6,1.1c0.7,1.2,1.6,2.3,3.2,3c0.4,0.2,0.9,0.4,1.4,0.6c4.1,1.7,6.7,3.1,6,7.2l0,0C80,47.2,80.5,49,81.3,52   c-0.9-0.4-1.7-0.7-2.4-0.8c-4.5-11-12.4-18.7-22.7-22.1C59.4,28.3,62.2,27.6,65,29z M40.8,23.7l1.5,1.6c0.4,0.4,0.9,0.4,1.4,0.2   l5.2-3.3l0.6,2.7c0.1,0.5,0.6,0.9,1.1,0.8l2.2-0.1v1.4c-0.9,0.2-1.8,0.4-2.6,0.5c-2.2-0.3-4.4-0.5-6.7-0.5c-1.7,0-3.3,0.1-4.8,0.3   L40.8,23.7z M89.6,66.9c-0.8,1-2.6,1.5-5.3,1.5h-9.7c-1.5-1-2.4-2.7-2.4-4.6h-2c0,1.7,0.6,3.3,1.5,4.6h-4.3c-1.5-1-2.4-2.7-2.4-4.6   h-2c0,1.7,0.6,3.3,1.6,4.6h-3.8c-1.5-1-2.4-2.7-2.4-4.6h-2c0,1.7,0.6,3.3,1.5,4.6H54c-1.5-1-2.4-2.7-2.4-4.6h-2.1   c0,1.7,0.6,3.3,1.6,4.6h-3.8c-1.4-1-2.4-2.7-2.4-4.6h-2c0,1.7,0.6,3.3,1.5,4.6h-3.8c-1.5-1-2.4-2.7-2.4-4.6h-2.1   c0,1.7,0.6,3.3,1.6,4.6H34c-1.5-1-2.4-2.7-2.4-4.6h-2.1c0,1.7,0.6,3.3,1.6,4.6h-3.8c-1.4-1-2.4-2.7-2.4-4.6h-2   c0,1.7,0.6,3.3,1.5,4.6h-3.8c-1.5-1-2.4-2.7-2.4-4.6h-2c0,1.7,0.6,3.3,1.5,4.6H15c-1.6,0-2.7-0.4-3.4-1.2c-0.9-1.1-1.2-3.3-0.8-6.3   c0-0.1,0-0.2,0-0.3c0,0,0,0,0,0c0,0,0,0,0,0c0,0,0-0.1,0-0.1c0,0,0-0.1,0-0.1c3.3-17.6,16-29,32.4-29C61,31.3,73.5,42,77.5,60.7   c0.2,0.9,1,1.6,2,1.6h5.7c0.6,0,1.2-0.3,1.6-0.7c0.4-0.5,0.6-1.1,0.5-1.7c-0.6-3.7-1.4-6.6-1.9-8.7c-0.3-1-0.5-2.1-0.7-2.8   c0.9,0.4,2.2,1.8,3.3,4.7c0.9,2.3,1.7,5.6,2.1,10c0.1,0.6,0.2,1.2,0.2,1.7C90.2,65.7,90,66.4,89.6,66.9z"/>
    </g>
</svg>